<?xml version="1.0" encoding="UTF-8" standalone="no"?>
<svg
   id="visual"
   viewBox="0 0 900 600"
   width="900"
   height="600"
   version="1.1"
   xmlns="http://www.w3.org/2000/svg"
   xmlns:svg="http://www.w3.org/2000/svg">
  <defs
     id="defs18" />
  <path
     d="m 0,512.5819 21.5,6.13547 c 21.5,6.13546 64.5,18.4064 107.3,18.85849 42.9,0.3875 85.5,-10.97926 128.4,-18.08349 42.8,-7.10422 85.8,-9.94591 128.6,-4.52087 42.9,5.36046 85.5,18.92308 128.4,24.21895 42.8,5.2313 85.8,2.26044 128.6,2.26044 42.9,0 85.5,2.97086 128.4,1.93752 42.8,-1.09793 85.8,-6.26464 107.3,-8.84799 l 21.5,-2.58336 v 71.6881 h -21.5 c -21.5,0 -64.5,0 -107.3,0 -42.9,0 -85.5,0 -128.4,0 -42.8,0 -85.8,0 -128.6,0 -42.9,0 -85.5,0 -128.4,0 -42.8,0 -85.8,0 -128.6,0 -42.9,0 -85.5,0 -128.4,0 -42.8,0 -85.8,0 -107.3,0 H 0 Z"
     fill="#ffe9b1"
     id="path11"
     style="stroke-width:0.803641" />
  <path
     d="m 0,549.39471 21.5,1.09792 c 21.5,1.03334 64.5,3.2292 107.3,1.93752 42.9,-1.29168 85.5,-6.07089 128.4,-2.3896 42.8,3.68128 85.8,15.69388 128.6,20.86059 42.9,5.16671 85.5,3.48753 128.4,-2.13127 42.8,-5.6188 85.8,-15.04804 128.6,-14.20845 42.9,0.83959 85.5,12.07718 128.4,17.11472 42.8,5.03754 85.8,4.0042 107.3,3.42295 l 21.5,-0.51667 v 29.06274 h -21.5 c -21.5,0 -64.5,0 -107.3,0 -42.9,0 -85.5,0 -128.4,0 -42.8,0 -85.8,0 -128.6,0 -42.9,0 -85.5,0 -128.4,0 -42.8,0 -85.8,0 -128.6,0 -42.9,0 -85.5,0 -128.4,0 -42.8,0 -85.8,0 -107.3,0 H 0 Z"
     fill="#3b3486"
     id="path13"
     style="stroke-width:0.803641" />
</svg>
