<svg id="visual" viewBox="0 0 900 600" width="900" height="600" xmlns="http://www.w3.org/2000/svg" xmlns:xlink="http://www.w3.org/1999/xlink" version="1.1"><path d="M0 542L11.5 540.8C23 539.7 46 537.3 69 536.3C92 535.3 115 535.7 138.2 539.3C161.3 543 184.7 550 207.8 551.5C231 553 254 549 277 541.2C300 533.3 323 521.7 346 517C369 512.3 392 514.7 415.2 522.2C438.3 529.7 461.7 542.3 484.8 543.8C508 545.3 531 535.7 554 536C577 536.3 600 546.7 623 543.8C646 541 669 525 692.2 522.7C715.3 520.3 738.7 531.7 761.8 533.2C785 534.7 808 526.3 831 523.2C854 520 877 522 888.5 523L900 524L900 601L888.5 601C877 601 854 601 831 601C808 601 785 601 761.8 601C738.7 601 715.3 601 692.2 601C669 601 646 601 623 601C600 601 577 601 554 601C531 601 508 601 484.8 601C461.7 601 438.3 601 415.2 601C392 601 369 601 346 601C323 601 300 601 277 601C254 601 231 601 207.8 601C184.7 601 161.3 601 138.2 601C115 601 92 601 69 601C46 601 23 601 11.5 601L0 601Z" fill="#ffe9b1"></path><path d="M0 547L11.5 546.8C23 546.7 46 546.3 69 551.2C92 556 115 566 138.2 569.8C161.3 573.7 184.7 571.3 207.8 569C231 566.7 254 564.3 277 560.8C300 557.3 323 552.7 346 554.2C369 555.7 392 563.3 415.2 567.8C438.3 572.3 461.7 573.7 484.8 571.5C508 569.3 531 563.7 554 558.3C577 553 600 548 623 546.5C646 545 669 547 692.2 549C715.3 551 738.7 553 761.8 557.3C785 561.7 808 568.3 831 568.2C854 568 877 561 888.5 557.5L900 554L900 601L888.5 601C877 601 854 601 831 601C808 601 785 601 761.8 601C738.7 601 715.3 601 692.2 601C669 601 646 601 623 601C600 601 577 601 554 601C531 601 508 601 484.8 601C461.7 601 438.3 601 415.2 601C392 601 369 601 346 601C323 601 300 601 277 601C254 601 231 601 207.8 601C184.7 601 161.3 601 138.2 601C115 601 92 601 69 601C46 601 23 601 11.5 601L0 601Z" fill="#3b3486"></path></svg>